<svg width="78" height="55" viewBox="0 0 78 55" fill="none" xmlns="http://www.w3.org/2000/svg">
<path d="M66.382 21.8682C66.2742 20.9946 65.6044 20.1035 64.5337 20.1035C64.363 20.1045 64.1931 20.127 64.0278 20.1705C59.6257 21.3018 56.4552 22.1638 52.7616 23.7421C52.8191 22.9267 52.9053 21.9716 53.0217 20.8985C53.0505 20.8883 53.0778 20.8796 53.1036 20.8679C54.2362 20.3976 55.1818 19.9943 55.807 19.7176C58.1698 18.6984 59.4705 18.1379 62.9542 17.1696C64.104 16.8493 64.3914 15.8592 64.2923 15.0962C64.1802 14.2401 63.5205 13.3723 62.4799 13.3723C62.2983 13.3735 62.1176 13.399 61.9424 13.448C58.4069 14.4308 57.0933 14.9987 54.7104 16.0266C54.3497 16.1824 53.9717 16.3469 53.5607 16.5217C53.8481 14.4454 54.1672 12.321 54.4733 10.5243C55.6834 10.0088 56.997 9.65066 58.2345 9.33325C59.9217 8.90518 60.9651 8.72463 62.1753 8.51496H62.1882C62.8105 8.40722 63.5852 8.27472 64.5754 8.07815C65.5168 7.89178 66.0658 7.15212 65.9738 6.18532C65.8876 5.27093 65.1733 4.29248 64.0235 4.29248C63.888 4.29243 63.7527 4.30559 63.6197 4.33179C62.6366 4.52545 61.678 4.68706 60.7453 4.84432C58.8769 5.15882 56.9352 5.48351 55.0784 6.06447C54.9957 5.81757 54.8585 5.593 54.6774 5.4078C54.2941 5.02626 53.7775 4.81376 53.2402 4.81665C52.5374 4.81665 51.6966 5.18211 51.4466 6.20861C51.3531 6.593 51.2353 7.15503 51.0988 7.88305C50.314 8.38006 49.5768 8.9504 48.897 9.5866C48.3221 10.1239 48.1467 10.8344 48.4169 11.5377C48.5678 11.9131 48.8213 12.2371 49.1477 12.4716C49.4741 12.706 49.8598 12.8412 50.2594 12.8612C49.4417 18.1772 48.6641 24.6084 48.9243 26.7867C49.0565 27.8845 49.8354 28.6518 50.8214 28.6518C51.1485 28.6489 51.4707 28.5697 51.7627 28.4203C56.4983 26.079 60.0798 25.1588 65.0367 23.8848C66.175 23.598 66.4725 22.618 66.382 21.8682Z" fill="black"/>
<path d="M14.8151 31.1795C15.0264 28.5485 15.3454 25.4821 15.6559 22.519V22.4535C15.8729 20.3743 16.0971 18.231 16.2767 16.2887C16.4708 14.1702 16.6878 11.8813 16.9608 9.51235C16.9867 9.2954 17.0112 9.07554 17.0341 8.85714C17.1606 7.71707 17.29 6.53769 17.5688 5.418C17.6317 5.18225 17.6396 4.93488 17.5917 4.69553C17.5438 4.45617 17.4415 4.23143 17.2928 4.03914C17.1124 3.81493 16.8848 3.63429 16.6267 3.51038C16.3687 3.38646 16.0866 3.32237 15.801 3.32278C15.4991 3.31736 15.2013 3.39491 14.9394 3.5472C14.6775 3.69948 14.4612 3.92081 14.3135 4.18766C13.5949 5.44858 12.9582 6.7459 12.3388 8.00099C11.9493 8.7887 11.5081 9.68271 11.0655 10.5257C10.2491 12.0852 9.55926 13.3286 8.87372 14.4366C8.66532 14.7773 8.46124 15.0948 8.25141 15.4034C7.90648 14.4439 7.10883 12.1041 6.61444 10.3292C6.28532 9.15562 5.9102 7.98935 5.54659 6.85947C5.377 6.33093 5.20741 5.80093 5.04357 5.27968C5.02776 5.13407 5.00621 4.99721 4.98034 4.86034L4.97315 4.83996C4.91579 4.66652 4.8491 4.4964 4.77338 4.33035C4.50463 3.80472 3.92399 3.47711 3.25713 3.47711C2.94986 3.47589 2.64677 3.54929 2.37325 3.69115C2.17811 3.79507 2.00597 3.93826 1.86736 4.11194C1.81604 4.1626 1.76803 4.21658 1.72364 4.27356C1.56982 4.48348 1.47094 4.72941 1.4362 4.98847C1.3193 5.4904 1.2538 6.00321 1.24074 6.51876C1.2278 6.75318 1.21343 6.99488 1.18756 7.18999C0.915932 9.22843 0.746342 11.3965 0.635678 14.227C0.463214 18.7043 0.306559 24.7759 0.227513 30.07C0.21828 30.282 0.251744 30.4938 0.325869 30.6923C0.399994 30.8908 0.513228 31.0719 0.658674 31.2246C0.831712 31.3935 1.03589 31.5262 1.25955 31.6152C1.48322 31.7041 1.72198 31.7475 1.96222 31.743C2.8346 31.743 3.7271 31.1722 3.74435 30.0817C3.78459 27.356 3.87513 24.211 3.96136 21.1693C4.02172 19.0785 4.07059 17.3516 4.10508 15.7471C4.11658 15.2709 4.12952 14.7817 4.1482 14.291C4.92141 16.4503 5.84122 18.0403 7.03122 19.2808C7.36485 19.6003 7.80972 19.7731 8.26865 19.7613C8.60106 19.768 8.92737 19.6704 9.20283 19.4818C10.8312 18.2995 11.9335 16.3979 12.9223 14.5211C12.8734 15.0297 12.8255 15.5389 12.7786 16.0485C12.6061 17.9209 12.3877 20.0176 12.1764 22.0458L12.1663 22.1405C11.8459 25.2243 11.5139 28.4131 11.2897 31.2013C11.266 31.4064 11.2857 31.6143 11.3474 31.8111C11.4091 32.0079 11.5114 32.1892 11.6475 32.3429C11.8092 32.5089 12.0029 32.6395 12.2165 32.7264C12.4301 32.8133 12.6591 32.8547 12.8893 32.8481C13.7846 32.8481 14.7332 32.2744 14.8151 31.1795Z" fill="black"/>
<path d="M46.2439 23.7856C45.9199 23.7878 45.6019 23.8735 45.3197 24.0346C43.7518 24.8981 42.487 25.4484 41.218 25.8183C40.5594 26.011 39.8784 26.1133 39.193 26.1226L39.1225 26.1124C39.0277 25.5795 39.1613 24.8209 39.2662 24.2035C39.4531 23.1377 39.6672 21.9292 39.8411 20.7091C40.8472 13.6968 41.3818 8.06637 41.5873 2.45192C41.6032 2.20965 41.5698 1.96665 41.4892 1.73798C41.4086 1.50932 41.2826 1.29985 41.1188 1.12257C40.9373 0.941091 40.722 0.798055 40.4853 0.701809C40.2487 0.605562 39.9955 0.558034 39.7405 0.561996C38.8006 0.561996 37.8247 1.20119 37.7802 2.4228C37.5157 9.6942 36.8891 15.9202 35.8098 22.0166C35.7753 22.2131 35.735 22.417 35.6934 22.6368L35.679 22.714C35.2478 24.9941 34.6974 27.8319 36.925 29.3418C37.5732 29.7787 38.3622 29.9941 39.3194 29.9941C40.1893 29.9694 41.0537 29.8458 41.8963 29.6258C43.7963 29.1817 45.5784 28.2833 47.214 27.3762C47.9872 26.951 48.3206 26.191 48.1079 25.3378C47.9225 24.5704 47.214 23.7856 46.2439 23.7856Z" fill="black"/>
<path d="M20.4202 29.2546C21.1748 26.8667 21.8704 24.4497 22.3949 22.5962C24.2849 21.6178 26.0124 20.7369 27.6709 19.9026C28.7085 23.3745 29.9565 26.7784 31.4076 30.0948C31.6706 30.6917 32.3188 31.0761 33.0604 31.0761C33.4001 31.0788 33.7345 30.9914 34.0305 30.8228C34.9087 30.303 35.1904 29.2575 34.7319 28.2209C33.4384 25.3088 32.27 22.0225 31.1389 18.1874C32.0817 17.7287 32.9296 17.3137 33.7258 16.9381C34.4976 16.5712 34.8655 15.8388 34.6859 15.0278C34.5062 14.2168 33.7603 13.3766 32.7155 13.3766C32.4203 13.3784 32.1293 13.4466 31.8632 13.5761C31.2788 13.8547 30.6871 14.1386 30.0883 14.4279C29.6428 12.7433 29.2001 10.9334 28.6511 8.58486C28.4714 7.80297 28.2702 7.00798 28.0388 6.15184C27.9483 5.81695 27.8678 5.47333 27.7945 5.10204L27.7773 5.01177C27.8894 4.74694 27.938 4.45896 27.919 4.17144C27.9 3.88392 27.814 3.60505 27.668 3.35772C27.4864 3.06519 27.2358 2.82308 26.9387 2.65327C26.6416 2.48347 26.3074 2.3913 25.9664 2.38509C25.6298 2.38162 25.3012 2.48835 25.0293 2.6894C24.5442 3.04044 24.2011 3.55773 24.0635 4.14543L23.9974 4.1265L23.9198 4.48468C22.2024 9.20658 20.8284 14.0945 19.5004 18.8324L19.1886 19.9317L19.0549 20.003C18.9423 20.0421 18.8331 20.0908 18.7286 20.1486C18.605 20.2142 18.4872 20.2826 18.378 20.3481C18.2687 20.4136 18.1653 20.4719 18.056 20.5301L17.724 20.7034L17.737 20.7354C17.4712 20.9378 17.272 21.2168 17.1653 21.5358C17.0587 21.8548 17.0495 22.199 17.1391 22.5234C17.274 23.067 17.6114 23.5366 18.0805 23.8338C17.5947 25.501 17.1765 26.8915 16.7597 28.2019C16.6639 28.4666 16.6338 28.7511 16.6719 29.0303C16.71 29.3096 16.8151 29.5751 16.9781 29.8036C17.1718 30.0547 17.4202 30.2571 17.704 30.3948C17.9877 30.5324 18.2991 30.6017 18.6137 30.5971C19.0191 30.6081 19.4167 30.4821 19.7437 30.2391C20.0708 29.996 20.3088 29.6497 20.4202 29.2546ZM23.8178 17.5467C24.2705 15.9451 24.8626 13.8775 25.5194 11.7401L25.551 11.8857C25.7637 12.8103 26.0023 13.8571 26.2696 14.8895C26.3774 15.3146 26.491 15.7325 26.6016 16.1475C25.7206 16.5828 24.8094 17.0356 23.8178 17.5467V17.5467Z" fill="black"/>
<path d="M77.6003 41H0V54.908H77.6003V41Z" fill="black"/>
<path d="M12.3901 49.1711C12.2037 48.9758 11.9756 48.8263 11.7232 48.7343C11.4274 48.6192 11.125 48.522 10.8178 48.4431C10.4808 48.3569 10.1488 48.2519 9.82327 48.1286C9.50653 48.0117 9.20262 47.8619 8.9164 47.6816C8.63454 47.4964 8.40519 47.2399 8.25097 46.9375C8.06913 46.5776 7.98013 46.1769 7.99227 45.7727C7.98708 45.4442 8.05447 45.1186 8.1895 44.8198C8.32452 44.521 8.52378 44.2566 8.77268 44.0459C9.29294 43.5838 9.99716 43.3528 10.8854 43.3528C11.2034 43.3518 11.5203 43.3924 11.8282 43.4737C12.0883 43.5403 12.3396 43.638 12.5769 43.7649C12.758 43.8633 12.9327 43.9732 13.1001 44.0939C13.2187 44.1795 13.3285 44.2771 13.4278 44.3851L13.5255 44.5089L12.6474 45.4043C12.6316 45.3883 12.6086 45.3607 12.5769 45.3214C12.514 45.2522 12.4441 45.1897 12.3685 45.135C12.2584 45.0485 12.1416 44.9711 12.0193 44.9035C11.8631 44.8232 11.6981 44.7616 11.5278 44.72C11.3179 44.6656 11.102 44.6386 10.8854 44.6399C10.4915 44.6201 10.1033 44.7412 9.78877 44.9821C9.66295 45.074 9.56003 45.1944 9.48818 45.3336C9.41633 45.4729 9.37753 45.6272 9.37486 45.7844C9.36814 46.0397 9.4605 46.2875 9.63212 46.4745C9.81857 46.6698 10.0467 46.8192 10.299 46.9113C10.5949 47.0263 10.8972 47.1236 11.2044 47.2025C11.5409 47.2895 11.8728 47.3935 12.199 47.5141C12.5158 47.6294 12.8198 47.7782 13.1058 47.9582C13.3881 48.1442 13.6175 48.4017 13.7713 48.7052C13.9517 49.063 14.0407 49.461 14.03 49.8627C14.0406 50.2269 13.9712 50.5889 13.8268 50.9225C13.6824 51.2562 13.4666 51.5532 13.1949 51.7919C12.6373 52.2899 11.8674 52.5389 10.8854 52.5389C10.4975 52.5414 10.1109 52.4924 9.73559 52.3933C9.42444 52.3156 9.12413 52.1986 8.84166 52.0453C8.62972 51.9242 8.42656 51.7879 8.23373 51.6376C8.09962 51.5347 7.97459 51.4202 7.86005 51.2954L7.73645 51.1396L8.61458 50.25C8.63182 50.2748 8.65913 50.3112 8.69794 50.3592C8.77995 50.4481 8.86782 50.5313 8.96095 50.6082C9.09893 50.7263 9.24817 50.8302 9.40648 50.9183C9.6086 51.0243 9.82228 51.1059 10.0432 51.1615C10.3164 51.2356 10.5982 51.2723 10.881 51.2707C11.4253 51.2707 11.8564 51.1358 12.1745 50.8659C12.3238 50.7468 12.4441 50.5945 12.5261 50.4208C12.6081 50.2471 12.6496 50.0567 12.6474 49.8642C12.6519 49.7371 12.6314 49.6105 12.5873 49.4915C12.5431 49.3725 12.4761 49.2636 12.3901 49.1711V49.1711Z" fill="white"/>
<path d="M24.3448 43.4927V44.7682H21.6989V52.4152H20.3206V44.7682H17.6761V43.4927H24.3448Z" fill="white"/>
<path d="M34.0875 50.5544C34.3103 50.3322 34.4864 50.0666 34.6053 49.7735C34.7241 49.4805 34.7831 49.1662 34.7788 48.8494V43.4927H36.1671V48.8494C36.1745 49.3368 36.082 49.8205 35.8955 50.2698C35.7089 50.7192 35.4324 51.1245 35.0835 51.4601C34.3797 52.1536 33.4366 52.5417 32.4548 52.5417C31.473 52.5417 30.5299 52.1536 29.8262 51.4601C29.4778 51.1246 29.2016 50.7198 29.0151 50.271C28.8286 49.8222 28.7358 49.3392 28.7425 48.8523V43.4927H30.1294V48.8494C30.1252 49.1668 30.1843 49.4818 30.303 49.7755C30.4218 50.0692 30.5979 50.3356 30.8207 50.5588C31.0306 50.7843 31.2837 50.9639 31.5646 51.0867C31.8455 51.2096 32.1482 51.2729 32.4541 51.2729C32.76 51.2729 33.0627 51.2096 33.3436 51.0867C33.6245 50.9639 33.8776 50.7843 34.0875 50.5588V50.5544Z" fill="white"/>
<path d="M44.6538 43.4926C45.2399 43.4841 45.8215 43.5966 46.3631 43.8234C46.9048 44.0502 47.3951 44.3865 47.8042 44.8118C48.2206 45.2192 48.5517 45.7074 48.7779 46.2472C49.0041 46.787 49.1206 47.3675 49.1206 47.9539C49.1206 48.5404 49.0041 49.1208 48.7779 49.6606C48.5517 50.2005 48.2206 50.6886 47.8042 51.096C47.3951 51.5213 46.9048 51.8576 46.3631 52.0844C45.8215 52.3112 45.2399 52.4238 44.6538 52.4152H41.5696V43.4926H44.6538ZM42.9522 44.7681V51.1397H44.6538C45.0604 51.147 45.4641 51.0686 45.8391 50.9094C46.2142 50.7503 46.5525 50.5138 46.8326 50.2151C47.409 49.6072 47.7308 48.7969 47.7308 47.9539C47.7308 47.111 47.409 46.3007 46.8326 45.6927C46.5523 45.3943 46.214 45.158 45.8389 44.9989C45.4639 44.8397 45.0604 44.7612 44.6538 44.7681H42.9522Z" fill="white"/>
<path d="M54.1465 43.4927H55.532V52.4152H54.1494L54.1465 43.4927Z" fill="white"/>
<path d="M61.896 44.6997C62.7889 43.8125 63.8908 43.3689 65.2015 43.3689C66.5122 43.3689 67.617 43.8125 68.5157 44.6997C68.9397 45.1258 69.2763 45.6327 69.5059 46.1913C69.7356 46.7498 69.8539 47.3489 69.8539 47.9539C69.8539 48.559 69.7356 49.1581 69.5059 49.7166C69.2763 50.2751 68.9397 50.7821 68.5157 51.2082C67.6227 52.0963 66.518 52.5404 65.2015 52.5404C63.885 52.5404 62.7832 52.0963 61.896 51.2082C61.4716 50.7822 61.1347 50.2754 60.9048 49.7168C60.6749 49.1583 60.5566 48.5591 60.5566 47.9539C60.5566 47.3488 60.6749 46.7496 60.9048 46.191C61.1347 45.6325 61.4716 45.1256 61.896 44.6997V44.6997ZM62.8876 50.3069C63.4245 50.86 64.1343 51.2072 64.8958 51.2891C65.6572 51.3709 66.4231 51.1825 67.0627 50.7558C67.7022 50.3291 68.1757 49.6907 68.4022 48.9497C68.6288 48.2086 68.5943 47.4109 68.3048 46.6927C68.0153 45.9745 67.4886 45.3805 66.8148 45.012C66.1409 44.6435 65.3617 44.5234 64.6102 44.6723C63.8587 44.8212 63.1815 45.2298 62.6943 45.8283C62.2072 46.4268 61.9402 47.1782 61.9391 47.9539C61.9303 48.3909 62.01 48.8251 62.1731 49.2298C62.3363 49.6344 62.5794 50.001 62.8876 50.3069V50.3069Z" fill="white"/>
</svg>
